HIERARCHY
ROOT pelvis
{
  OFFSET 0 100 0
  CHANNELS 6 Xposition Yposition Zposition Zrotation Xrotation Yrotation
  JOINT pelvis_right_femur
  {
    OFFSET -10.78128 -3.44521 -0.5502486
    CHANNELS 3 Zrotation Xrotation Yrotation
    JOINT right_femur_tibia
    {
      OFFSET -0.8047443 -44.0398 -0.1307829
      CHANNELS 3 Zrotation Xrotation Yrotation
      JOINT right_tibia_foot
      {
        OFFSET 3.006224 -47.83518 -5
        CHANNELS 3 Zrotation Xrotation Yrotation
        End Site
        {
          OFFSET 0 -5 15
        }
      }
    }
  }
  JOINT pelvis_left_femur
  {
    OFFSET 10.78128 -3.44521 -0.5502486
    CHANNELS 3 Zrotation Xrotation Yrotation
    JOINT left_femur_tibia
    {
      OFFSET 0.8047443 -44.0398 -0.1307829
      CHANNELS 3 Zrotation Xrotation Yrotation
      JOINT left_tibia_foot
      {
        OFFSET -4.370144 -48.10324 -4.275266
        CHANNELS 3 Zrotation Xrotation Yrotation
        End Site
        {
          OFFSET 0 -5 15
        }
      }
    }
  }
  JOINT pelvis_spine1
  {
    OFFSET 0 6.468898 -3.129235
    CHANNELS 3 Zrotation Xrotation Yrotation
    JOINT spine1
    {
      OFFSET 0 23.15396 4.99043
      CHANNELS 3 Zrotation Xrotation Yrotation
      JOINT spine2
      {
        OFFSET 0 20.79997 -5.064912
        CHANNELS 3 Zrotation Xrotation Yrotation
        JOINT neck
        {
          OFFSET 0 14.38658 9.616178
          CHANNELS 3 Zrotation Xrotation Yrotation
          End Site
          {
            OFFSET 0 20 0
          }
        }
      }
      JOINT right_manubrium
      {
        OFFSET -5.722621 16.35077 3.967754
        CHANNELS 3 Zrotation Xrotation Yrotation
        JOINT right_clavicle
        {
          OFFSET -13.16364 1.694482 -4.693211
          CHANNELS 3 Zrotation Xrotation Yrotation
          JOINT right_humerus
          {
            OFFSET -28.5034 -0.3100689 -2.792744
            CHANNELS 3 Zrotation Xrotation Yrotation
            JOINT right_radius
            {
              OFFSET -25.15693 0.02248979 -1.271978
              CHANNELS 3 Zrotation Xrotation Yrotation
              End Site
              {
                OFFSET -15 0 0
              }
            }
          }
        }
      }
      JOINT left_manubrium
      {
        OFFSET 5.722621 16.35077 3.967754
        CHANNELS 3 Zrotation Xrotation Yrotation
        JOINT left_clavicle
        {
          OFFSET 13.16364 1.694482 -4.693211
          CHANNELS 3 Zrotation Xrotation Yrotation
          JOINT left_humerus
          {
            OFFSET 29.39168 -1.063119 -2.237045
            CHANNELS 3 Zrotation Xrotation Yrotation
            JOINT left_radius
            {
              OFFSET 24.59957 -0.9528479 0.9047498
              CHANNELS 3 Zrotation Xrotation Yrotation
              End Site
              {
                OFFSET 15 -0 -0
              }
            }
          }
        }
      }
    }
  }
}
MOTION
Frames: 15
Frame Time: 0.0416666666667
0 103.5113 0 -0.4344588 -2.984036 -0.004141846 5.303762 -13.04666 8.425854 -0 39.8182 -0 -9.169304 -18.66635 -5.848064 -4.360024 8.69386 -20.48627 -0 5.949839 -0 10.24303 -11.75058 23.85883 -1.938414 -1.930131 4.660993 2.805757 9.395661 -7.762868 1.117333 20.07885 6.866163 4.2367 -25.28917 8.161066 5.721547 -18.89531 11.35044 85.15219 34.47045 -18.22927 -0 0 16.26621 -8.504833 8.179376 4.773649 7.199007 -20.95854 -0.8951361 -92.83477 20.80165 20.55677 0 0 -14.33 11.52319 13.84226 -0.5291138
0.3030075 103.5821 1.536583 -0.5983641 -2.1404 0.09483881 5.950864 -15.85481 8.818404 -0 39.43616 -0 -8.479344 -18.34909 -5.793637 -4.471018 9.245701 -20.51399 -0 6.224622 -0 10.03209 -13.03235 23.50613 -1.868543 -2.132102 4.539587 2.97049 9.304013 -8.017301 1.229707 19.71685 7.072937 4.190266 -25.90015 8.688291 5.66206 -18.67979 11.34687 85.63884 34.23162 -19.13963 -0 0 16.01044 -8.165922 8.748653 4.409855 7.621162 -21.20027 -0.5652708 -92.39808 20.54885 19.53141 0 0 -15.74337 12.4386 13.8135 -1.63961
0.5858986 103.5823 3.135745 -0.4662897 -1.564104 0.2270199 6.001659 -18.22924 8.668532 -0 38.10007 -0 -7.732338 -16.8595 -5.284396 -4.904865 10.29514 -20.75062 -0 6.638074 -0 9.149564 -14.97669 23.55678 -1.874223 -2.021821 4.442939 3.01339 9.283735 -8.028854 1.187155 19.86741 7.072418 4.126513 -25.92099 8.636679 5.661006 -18.57183 11.35423 85.73182 34.31589 -19.20334 -0 0 15.533 -8.425019 8.845888 4.781675 7.365804 -21.12449 -0.6459758 -92.37645 21.12174 19.60121 0 0 -15.79819 11.70739 13.84233 -0.580817
0.8536081 103.5193 4.904835 -0.5285127 -0.8079434 0.3997439 6.416956 -21.17666 8.211218 -0 35.74506 -0 -7.305365 -14.76553 -4.64802 -5.140734 11.0282 -20.37543 -0 7.470105 -0 8.477578 -16.75342 23.03611 -1.854251 -2.007485 4.350416 3.111826 9.25112 -8.125068 1.174212 19.89268 7.089573 4.069181 -26.13247 8.686358 5.644148 -18.48372 11.35871 85.95311 34.25879 -19.55578 -0 0 15.16518 -8.324799 8.861047 4.871901 7.26449 -21.1346 -0.6362014 -92.35331 21.57526 19.53556 0 0 -16.14073 11.34488 13.8708 -0.001563154
1.107984 103.3655 6.941482 -0.641844 -0.006183229 0.619383 6.809685 -24.09819 7.540518 -0 32.74224 -0 -7.052274 -12.34841 -3.927491 -5.304148 11.65052 -19.75573 -0 8.389769 -0 7.621082 -18.43543 22.2106 -1.834992 -1.981646 4.246477 3.208185 9.217257 -8.221151 1.159624 19.92535 7.119325 4.007342 -26.33758 8.745981 5.626298 -18.37099 11.36529 86.18622 34.21846 -19.91456 -0 0 14.73524 -8.306026 8.945448 5.013141 7.151074 -21.14578 -0.6322642 -92.28898 22.0492 19.42068 0 0 -16.53752 10.93858 13.89003 0.6426002
1.352925 103.1184 9.365453 -0.8717044 0.8992343 0.8989142 7.26303 -27.03744 6.706329 -0 29.15872 -0 -7.021369 -9.670336 -3.166106 -5.327868 12.11821 -18.8145 -0 9.56952 -0 6.554111 -19.84902 20.89363 -1.81187 -1.966443 4.137336 3.311866 9.181991 -8.331336 1.149328 19.93929 7.159526 3.945004 -26.56939 8.828669 5.605005 -18.24805 11.37284 86.44728 34.16266 -20.3239 -0 0 14.2911 -8.275741 9.058424 5.13415 7.059862 -21.17447 -0.6163926 -92.19645 22.50188 19.24912 0 0 -17.013 10.58213 13.90308 1.224898
1.591752 102.7829 12.28872 -1.192346 1.828677 1.243666 7.679302 -29.66763 5.784456 -0 25.31319 -0 -7.196737 -6.953419 -2.430076 -5.215059 12.47066 -17.66609 -0 11.08222 -0 5.178645 -20.82725 19.12918 -1.788518 -1.949135 4.022381 3.410438 9.148368 -8.442252 1.141994 19.94397 7.216453 3.881812 -26.79559 8.933015 5.581964 -18.10426 11.38281 86.71662 34.11757 -20.73756 -0 0 13.81373 -8.325443 9.259096 5.285485 6.98041 -21.21373 -0.596854 -92.04751 22.91431 18.99982 0 0 -17.55473 10.25313 13.90161 1.771702
1.828081 102.3929 15.81466 -1.601658 2.703128 1.651228 8.047338 -31.7096 4.858416 -0 21.56165 -0 -7.593013 -4.379608 -1.785858 -4.948416 12.70324 -16.37059 -0 13.22228 -0 3.494051 -21.12738 16.94181 -1.766612 -1.926847 3.905891 3.496886 9.119959 -8.546841 1.137253 19.94092 7.28981 3.819513 -26.99772 9.054474 5.558514 -17.94206 11.39579 86.97979 34.09223 -21.12841 -0 0 13.31462 -8.484064 9.560978 5.478582 6.912229 -21.26139 -0.5774677 -91.83642 23.26232 18.67371 0 0 -18.14148 9.957238 13.88138 2.270571
2.06563 102.0199 20.00826 -2.066186 3.386685 2.100788 8.355806 -32.79646 4.038575 -0 18.39266 -0 -8.210991 -2.176001 -1.304005 -4.538531 12.77722 -15.03853 -0 16.36818 -0 1.603989 -20.51013 14.50435 -1.748901 -1.893283 3.793019 3.561151 9.101193 -8.634431 1.133736 19.93579 7.378584 3.759912 -27.1474 9.184132 5.536864 -17.76356 11.4124 87.21641 34.10191 -21.45744 -0 0 12.80465 -8.795907 9.98079 5.734864 6.850172 -21.31246 -0.5659485 -91.55727 23.52268 18.2766 0 0 -18.74158 9.687882 13.83672 2.723919
2.308118 101.7833 24.8729 -2.537005 3.747537 2.550052 8.62105 -32.59704 3.441081 -0 16.26794 -0 -9.051272 -0.5429427 -1.02254 -4.015389 12.55797 -13.78655 -0 20.97441 -0 -0.3222022 -18.81011 12.0711 -1.738497 -1.842178 3.691149 3.59327 9.09647 -8.693427 1.129052 19.93731 7.477186 3.705593 -27.21375 9.305731 5.519809 -17.57606 11.43251 87.40295 34.15961 -21.68316 -0 0 12.30475 -9.287529 10.51048 6.068213 6.786389 -21.35954 -0.5726142 -91.21809 23.68045 17.83396 0 0 -19.3062 9.431064 13.76389 3.142673
2.556901 101.8357 30.32107 -2.941184 3.68496 2.935299 8.840929 -30.87775 3.142875 -0 15.4333 -0 -10.09744 0.3497514 -0.9218846 -3.433455 11.78258 -12.72804 -0 27.34641 -0 -2.123451 -16.05184 9.953645 -1.739026 -1.76611 3.609529 3.583575 9.1095 -8.710763 1.119348 19.95909 7.575235 3.659802 -27.16399 9.39471 5.5106 -17.39152 11.4551 87.51222 34.27551 -21.76071 -0 0 11.84302 -9.967142 11.11343 6.486509 6.708096 -21.39122 -0.6109451 -90.84264 23.7357 17.3937 0 0 -19.76772 9.15882 13.66084 3.555745
2.805302 102.3141 36.1586 -3.192694 3.158945 3.180858 8.969489 -27.59572 3.131443 -0 15.68874 -0 -11.28433 0.3738395 -0.9265233 -2.856241 10.0796 -11.91753 -0 35.36668 -0 -3.725573 -12.52581 8.440471 -1.754346 -1.656971 3.55992 3.523303 9.142679 -8.671765 1.099447 20.01942 7.657417 3.626764 -26.96714 9.418858 5.512469 -17.22806 11.47833 87.51216 34.45375 -21.64132 -0 0 11.45699 -10.81828 11.71967 6.988197 6.597749 -21.39065 -0.6962129 -90.4734 23.70677 17.02981 0 0 -20.03837 8.829788 13.52711 4.010065
3.031945 103.2566 42.1029 -3.203686 2.164264 3.212552 8.927509 -22.95267 3.278275 -0 16.29731 -0 -12.43718 -0.5274903 -0.9559813 -2.336676 7.11538 -11.28202 -0 44.22492 -0 -5.10229 -8.805701 7.767076 -1.787787 -1.50724 3.556807 3.404477 9.196604 -8.560197 1.064287 20.13783 7.706318 3.611482 -26.59837 9.344633 5.527447 -17.10937 11.50007 87.36534 34.68972 -21.27164 -0 0 11.1941 -11.80603 12.23992 7.563175 6.436148 -21.33567 -0.8418804 -90.16654 23.62558 16.83428 0 0 -20.02018 8.396006 13.3626 4.562506
3.20255 104.5299 47.86278 -2.910585 0.6965248 2.976756 8.664505 -17.38414 3.380564 -0 16.23271 -0 -13.21779 -2.268398 -0.9992889 -1.886972 2.845408 -10.59467 -0 52.40088 -0 -6.1699 -5.640783 8.080883 -1.84061 -1.313122 3.616158 3.219802 9.269492 -8.360095 1.012069 20.3276 7.708111 3.618434 -26.04493 9.15007 5.554271 -17.06125 11.51876 87.03301 34.9672 -20.59853 -0 0 11.10915 -12.89369 12.59952 8.197024 6.209795 -21.20223 -1.053596 -89.97792 23.52511 16.89453 0 0 -19.63202 7.817555 13.16697 5.261419
3.291311 105.8414 53.26007 -2.326679 -1.198756 2.468642 8.215879 -11.46616 3.271179 -0 14.82411 -0 -13.20549 -4.565123 -1.117902 -1.451048 -2.327987 -9.580072 -0 58.06035 -0 -6.740115 -3.677837 9.3559 -1.909919 -1.079105 3.750828 2.964824 9.356526 -8.061793 0.9478763 20.58599 7.659553 3.648546 -25.31508 8.840892 5.585982 -17.10382 11.53416 86.48952 35.25505 -19.58906 -0 0 11.25219 -14.06063 12.78071 8.876658 5.920394 -20.97296 -1.32268 -89.94194 23.42562 17.25725 0 0 -18.85354 7.080827 12.94049 6.124169
